<?xml version="1.0" encoding="UTF-8" standalone="no"?>
<!--?xml version="1.0" standalone="no"?-->

<svg
   xmlns:dc="http://purl.org/dc/elements/1.1/"
   xmlns:cc="http://creativecommons.org/ns#"
   xmlns:rdf="http://www.w3.org/1999/02/22-rdf-syntax-ns#"
   xmlns:svg="http://www.w3.org/2000/svg"
   xmlns="http://www.w3.org/2000/svg"
   xmlns:sodipodi="http://sodipodi.sourceforge.net/DTD/sodipodi-0.dtd"
   xmlns:inkscape="http://www.inkscape.org/namespaces/inkscape"
   width="500pt"
   height="300pt"
   viewBox="0 0 500 300"
   preserveAspectRatio="xMidYMid meet"
   version="1.1"
   id="svg3714"
   sodipodi:docname="logo.svg"
   inkscape:version="0.92.1 r15371">
  <defs
     id="defs3718" />
  <sodipodi:namedview
     pagecolor="#ffffff"
     bordercolor="#666666"
     borderopacity="1"
     objecttolerance="10"
     gridtolerance="10"
     guidetolerance="10"
     inkscape:pageopacity="0"
     inkscape:pageshadow="2"
     inkscape:window-width="1366"
     inkscape:window-height="745"
     id="namedview3716"
     showgrid="false"
     inkscape:zoom="0.59"
     inkscape:cx="973.63187"
     inkscape:cy="200"
     inkscape:window-x="-8"
     inkscape:window-y="-8"
     inkscape:window-maximized="1"
     inkscape:current-layer="svg3714" />
  <metadata
     id="metadata3704">
    <rdf:rdf>
      <rdf:description
         dc:title="world icon"
         dc:publisher="Hiox"
         dc:date="2015-03-14"
         dc:format="image/svg+xml"
         dc:language="en">
        <dc:creator>
          <rdf:bag>
            <rdf:li>svgimages.com</rdf:li>
          </rdf:bag>
        </dc:creator>
      </rdf:description>
    </rdf:rdf>
    <rdf:RDF>
      <cc:Work
         rdf:about="">
        <dc:format>image/svg+xml</dc:format>
        <dc:type
           rdf:resource="http://purl.org/dc/dcmitype/StillImage" />
        <dc:title></dc:title>
      </cc:Work>
    </rdf:RDF>
  </metadata>
  <g
     transform="matrix(0.1,0,0,-0.1,-45.762707,302.54237)"
     id="g3708"
     style="fill:#232323;stroke:none">
    <path
       d="M 1348,2495 C 713,2391 332,1735 561,1139 661,880 879,661 1139,561 c 228,-88 494,-88 722,0 260,100 478,318 578,578 88,229 88,493 0,722 -100,260 -319,478 -578,578 -157,60 -355,82 -513,56 z m -74,-121 c 5,-13 15,-15 46,-10 35,5 44,3 65,-20 13,-14 36,-57 50,-95 22,-57 25,-72 14,-85 -19,-23 5,-88 45,-119 44,-34 63,-32 87,9 11,19 34,41 50,48 119,51 174,85 188,113 8,17 18,37 23,45 5,8 14,27 21,43 6,15 15,27 20,27 35,0 192,-106 266,-181 87,-86 201,-265 186,-289 -11,-17 -61,-11 -80,10 -28,31 -58,25 -94,-20 -23,-28 -40,-40 -58,-40 h -26 l 23,24 c 24,26 22,56 -5,56 -9,0 -15,9 -15,24 0,29 -22,49 -45,40 -13,-5 -15,-14 -11,-35 3,-16 9,-44 12,-61 4,-18 11,-39 16,-45 8,-9 6,-13 -5,-13 -22,0 -30,-16 -19,-37 13,-26 4,-43 -23,-43 -43,0 -74,-77 -43,-108 21,-21 51,-13 128,38 84,55 105,56 132,9 20,-33 47,-38 55,-9 7,28 20,25 38,-9 21,-41 32,-45 61,-26 14,9 27,15 30,13 2,-2 6,-29 10,-59 l 6,-54 -46,-13 c -76,-20 -87,-16 -146,44 l -55,56 -60,-7 c -116,-12 -154,-25 -169,-53 -8,-15 -28,-39 -45,-54 -44,-39 -74,-104 -67,-141 10,-49 54,-115 89,-134 20,-11 63,-20 117,-23 l 85,-5 6,-55 c 3,-30 10,-66 15,-80 6,-14 9,-64 9,-112 -2,-82 -4,-88 -31,-113 -106,-95 -262,-180 -399,-216 -149,-40 -451,-26 -520,25 -17,12 -16,14 9,32 16,10 35,26 45,34 9,8 29,23 44,33 15,9 27,23 27,31 0,7 42,49 93,93 76,66 100,94 131,152 53,101 50,108 -57,144 -67,22 -90,34 -97,52 -10,27 -92,99 -138,120 -17,9 -71,19 -120,22 l -87,6 -70,67 c -38,37 -80,73 -93,79 -18,10 -22,19 -20,44 3,31 5,32 62,41 58,10 59,9 88,-23 33,-37 48,-33 48,15 0,19 4,34 10,34 5,0 16,15 24,33 14,35 59,77 82,77 7,0 21,10 31,23 10,12 32,27 48,32 22,8 30,17 29,34 -1,20 3,22 30,18 34,-5 86,17 86,36 0,7 -18,30 -39,51 -21,21 -47,56 -56,77 -18,40 -41,49 -64,27 -10,-11 -19,-6 -44,25 -55,64 -87,43 -87,-57 0,-53 -1,-56 -24,-56 -16,0 -50,21 -90,56 -53,44 -66,61 -66,84 0,39 43,87 91,101 22,7 45,19 51,27 19,23 -18,45 -64,38 -45,-7 -57,8 -23,30 20,13 31,14 55,6 16,-6 31,-8 31,-4 1,4 2,12 4,17 1,6 3,16 3,22 2,15 46,38 116,64 64,22 63,22 70,3 z M 645,1573 c 48,-54 66,-52 40,2 -9,20 -14,39 -11,42 8,8 6,10 50,-72 45,-82 72,-115 98,-115 11,0 33,-7 51,-16 50,-26 177,-124 177,-137 0,-7 -9,-25 -20,-42 -39,-59 -16,-160 53,-232 37,-39 39,-44 33,-83 -3,-23 -13,-51 -21,-63 -7,-12 -21,-52 -31,-89 -19,-77 -12,-77 -114,-3 -211,156 -346,404 -366,674 -6,83 1,181 12,181 3,0 25,-21 49,-47 z"
       id="node1"
       class="node"
       style="fill:#0d0d0d"
       inkscape:connector-curvature="0" />
    <path
       d="m 1174,2255 c -3,-8 -3,-18 0,-24 4,-5 -3,-26 -15,-45 -23,-40 -20,-66 9,-66 10,0 31,-13 47,-30 16,-16 37,-30 47,-30 22,0 41,35 33,60 -5,16 -2,20 18,20 40,0 38,11 -9,56 -67,65 -119,89 -130,59 z"
       id="node2"
       class="node"
       inkscape:connector-curvature="0" />
  </g>
  <g
     transform="matrix(0.1,0,0,-0.1,-45.762707,302.54237)"
     id="g3712"
     style="fill:#bfe4de;stroke:none">
    <path
       d="m 1204,2371 c -70,-26 -114,-49 -116,-64 0,-6 -2,-16 -3,-22 -2,-5 -3,-13 -4,-17 0,-4 -15,-2 -31,4 -24,8 -35,7 -55,-6 -34,-22 -22,-37 23,-30 46,7 83,-15 64,-38 -6,-8 -29,-20 -51,-27 -48,-14 -91,-62 -91,-101 0,-23 13,-40 66,-84 40,-35 74,-56 90,-56 23,0 24,3 24,56 0,100 32,121 87,57 25,-31 34,-36 44,-25 23,22 46,13 64,-27 9,-21 35,-56 56,-77 21,-21 39,-44 39,-51 0,-19 -52,-41 -86,-36 -27,4 -31,2 -30,-18 1,-17 -7,-26 -29,-34 -16,-5 -38,-20 -48,-32 -10,-13 -24,-23 -31,-23 -23,0 -68,-42 -82,-77 -8,-18 -19,-33 -24,-33 -6,0 -10,-15 -10,-34 0,-48 -15,-52 -48,-15 -29,32 -30,33 -88,23 -57,-9 -59,-10 -62,-41 -2,-25 2,-34 20,-44 13,-6 55,-42 93,-79 l 70,-67 87,-6 c 49,-3 103,-13 120,-22 46,-21 128,-93 138,-120 7,-18 30,-30 97,-52 107,-36 110,-43 57,-144 -31,-58 -55,-86 -131,-152 -51,-44 -93,-86 -93,-93 0,-8 -12,-22 -27,-31 -15,-10 -35,-25 -44,-33 -10,-8 -29,-24 -45,-34 -25,-18 -26,-20 -9,-32 69,-51 371,-65 520,-25 137,36 293,121 399,216 27,25 29,31 31,113 0,48 -3,98 -9,112 -5,14 -12,50 -15,80 l -6,55 -85,5 c -54,3 -97,12 -117,23 -35,19 -79,85 -89,134 -7,37 23,102 67,141 17,15 37,39 45,54 15,28 53,41 169,53 l 60,7 55,-56 c 59,-60 70,-64 146,-44 l 46,13 -6,54 c -4,30 -8,57 -10,59 -3,2 -16,-4 -30,-13 -29,-19 -40,-15 -61,26 -18,34 -31,37 -38,9 -8,-29 -35,-24 -55,9 -27,47 -48,46 -132,-9 -77,-51 -107,-59 -128,-38 -31,31 0,108 43,108 27,0 36,17 23,43 -11,21 -3,37 19,37 11,0 13,4 5,13 -5,6 -12,27 -16,45 -3,17 -9,45 -12,61 -4,21 -2,30 11,35 23,9 45,-11 45,-40 0,-15 6,-24 15,-24 27,0 29,-30 5,-56 l -23,-24 h 26 c 18,0 35,12 58,40 36,45 66,51 94,20 19,-21 69,-27 80,-10 15,24 -99,203 -186,289 -74,75 -231,181 -266,181 -5,0 -14,-12 -20,-27 -7,-16 -16,-35 -21,-43 -5,-8 -15,-28 -23,-45 -14,-28 -69,-62 -188,-113 -16,-7 -39,-29 -50,-48 -24,-41 -43,-43 -87,-9 -40,31 -64,96 -45,119 11,13 8,28 -14,85 -14,38 -37,81 -50,95 -21,23 -30,25 -65,20 -31,-5 -41,-3 -46,10 -7,19 -6,19 -70,-3 z m 26,-116 c 37,-19 121,-100 113,-109 -4,-3 -17,-6 -30,-6 -20,0 -23,-4 -18,-20 8,-25 -11,-60 -33,-60 -10,0 -31,14 -47,30 -16,17 -37,30 -47,30 -29,0 -32,26 -9,66 12,19 19,40 15,45 -8,13 3,39 16,39 6,0 24,-7 40,-15 z"
       id="node4"
       class="node"
       style="fill:#27abf2"
       inkscape:connector-curvature="0" />
    <path
       d="m 584,1574 c -9,-65 3,-209 26,-300 52,-201 177,-388 340,-509 102,-74 95,-74 114,3 10,37 24,77 31,89 8,12 18,40 21,63 6,39 4,44 -33,83 -69,72 -92,173 -53,232 11,17 20,35 20,42 0,13 -127,111 -177,137 -18,9 -40,16 -51,16 -26,0 -53,33 -98,115 -44,82 -42,80 -50,72 -3,-3 2,-22 11,-42 26,-54 8,-56 -40,-2 -24,26 -46,47 -49,47 -2,0 -8,-21 -12,-46 z"
       id="node5"
       class="node"
       style="fill:#16a8f7"
       inkscape:connector-curvature="0" />
  </g>
  <flowRoot
     xml:space="preserve"
     id="flowRoot3720"
     style="font-style:normal;font-weight:normal;font-size:40px;line-height:1.25;font-family:sans-serif;letter-spacing:0px;word-spacing:0px;fill:#000000;fill-opacity:1;stroke:none"
     transform="matrix(0.75,0,0,0.75,-48.305083,-13.983056)"><flowRegion
       id="flowRegion3722"><rect
         id="rect3724"
         width="1144.0677"
         height="350.84744"
         x="359.32202"
         y="161.01695" /></flowRegion><flowPara
       id="flowPara3726"
       style="font-style:normal;font-variant:normal;font-weight:normal;font-stretch:normal;font-size:64px;font-family:'Tw Cen MT Condensed Extra Bold';-inkscape-font-specification:'Tw Cen MT Condensed Extra Bold, '">Still Real-Time </flowPara><flowPara
       style="font-style:normal;font-variant:normal;font-weight:normal;font-stretch:normal;font-size:64px;font-family:'Tw Cen MT Condensed Extra Bold';-inkscape-font-specification:'Tw Cen MT Condensed Extra Bold, '"
       id="flowPara3746">     Control</flowPara></flowRoot>  <flowRoot
     xml:space="preserve"
     id="flowRoot3730"
     style="font-style:normal;font-weight:normal;font-size:30px;line-height:1.25;font-family:sans-serif;letter-spacing:0px;word-spacing:0px;fill:#000000;fill-opacity:1;stroke:none;stroke-width:0.75"
     transform="translate(0,-3.8146974e-6)"><flowRegion
       id="flowRegion3732"
       style="stroke-width:0.75"><rect
         id="rect3734"
         width="64.830513"
         height="33.050846"
         x="661.01697"
         y="235.16949"
         style="stroke-width:0.5625" /></flowRegion><flowPara
       id="flowPara3736"
       style="stroke-width:0.75" /></flowRoot>  <flowRoot
     xml:space="preserve"
     id="flowRoot3738"
     style="font-style:normal;font-weight:normal;font-size:30px;line-height:1.25;font-family:sans-serif;letter-spacing:0px;word-spacing:0px;fill:#000000;fill-opacity:1;stroke:none;stroke-width:0.75"
     transform="translate(0,-3.8146974e-6)"><flowRegion
       id="flowRegion3740"
       style="stroke-width:0.75"><rect
         id="rect3742"
         width="376.27118"
         height="86.440674"
         x="-66.101692"
         y="-66.101692"
         style="stroke-width:0.5625" /></flowRegion><flowPara
       id="flowPara3744"
       style="stroke-width:0.75" /></flowRoot>  <flowRoot
     xml:space="preserve"
     id="flowRoot3748"
     style="fill:black;fill-opacity:1;stroke:none;font-family:sans-serif;font-style:normal;font-weight:normal;font-size:40px;line-height:1.25;letter-spacing:0px;word-spacing:0px"><flowRegion
       id="flowRegion3750"><rect
         id="rect3752"
         width="1.6949153"
         height="72.881355"
         x="486.44067"
         y="116.94915" /></flowRegion><flowPara
       id="flowPara3754" /></flowRoot>  <flowRoot
     xml:space="preserve"
     id="flowRoot3756"
     style="fill:black;fill-opacity:1;stroke:none;font-family:sans-serif;font-style:normal;font-weight:normal;font-size:40px;line-height:1.25;letter-spacing:0px;word-spacing:0px"><flowRegion
       id="flowRegion3758"><rect
         id="rect3760"
         width="6.7796612"
         height="54.237289"
         x="632.20337"
         y="120.33898" /></flowRegion><flowPara
       id="flowPara3762" /></flowRoot>  <flowRoot
     xml:space="preserve"
     id="flowRoot3764"
     style="fill:black;fill-opacity:1;stroke:none;font-family:sans-serif;font-style:normal;font-weight:normal;font-size:40px;line-height:1.25;letter-spacing:0px;word-spacing:0px"><flowRegion
       id="flowRegion3766"><rect
         id="rect3768"
         width="442.37289"
         height="162.71187"
         x="274.57626"
         y="167.79662" /></flowRegion><flowPara
       id="flowPara3770" /></flowRoot></svg>
